<?xml version="1.0" encoding="UTF-8"?>
<svg width="100px" height="100px" viewBox="0 0 100 100" version="1.1" xmlns="http://www.w3.org/2000/svg" xmlns:xlink="http://www.w3.org/1999/xlink">
    <!-- Generator: Sketch 47.1 (45422) - http://www.bohemiancoding.com/sketch -->
    <title>claromusica</title>
    <desc>Created with Sketch.</desc>
    <defs></defs>
    <g id="default---square-logos" stroke="none" stroke-width="1" fill="none" fill-rule="evenodd">
        <g id="claromusica" fill-rule="nonzero">
            <g id="Group-2" transform="translate(5.000000, 16.000000)">
                <g id="Group" transform="translate(15.000000, 36.000000)" fill="#000000">
                    <path d="M15.8176302,20.121367 L15.8176302,12.0169275 C15.8176302,11.5418397 15.7617375,11.1785372 15.6220057,10.8711274 C15.482274,10.5637177 15.314596,10.3122006 15.1189716,10.1165762 C14.8954008,9.92095177 14.6718301,9.78122006 14.3923667,9.69738103 C14.1408496,9.613542 13.8613861,9.55764931 13.6098691,9.55764931 C13.358352,9.55764931 13.1068349,9.613542 12.8273714,9.69738103 C12.5758544,9.78122006 12.3243373,9.92095177 12.1007665,10.0886298 C11.8771958,10.2563079 11.7095177,10.507825 11.569786,10.8152347 C11.4300543,11.1226445 11.3741616,11.485947 11.3741616,11.9330885 L11.3741616,20.121367 L7.9926541,20.121367 L7.9926541,12.0169275 C7.9926541,11.5418397 7.93676142,11.1785372 7.7970297,10.8711274 C7.65729799,10.5637177 7.48961993,10.3122006 7.29399553,10.1165762 C7.07042478,9.92095177 6.84685404,9.78122006 6.56739061,9.69738103 C6.28792718,9.613542 6.03641009,9.55764931 5.78489301,9.55764931 C5.53337592,9.55764931 5.25391249,9.613542 5.0023954,9.69738103 C4.72293197,9.78122006 4.49936123,9.92095177 4.27579048,10.1165762 C4.05221974,10.3122006 3.88454168,10.5637177 3.74480996,10.8711274 C3.60507825,11.1785372 3.54918556,11.569786 3.54918556,12.0169275 L3.54918556,20.121367 L0.195624401,20.121367 L0.195624401,6.70712233 L3.46534653,6.70712233 L3.46534653,7.93676142 C3.91248802,7.48961993 4.4155222,7.15426381 5.0023954,6.90274673 C5.5892686,6.65122964 6.17614181,6.53944427 6.8189077,6.53944427 C7.57345896,6.53944427 8.24417119,6.67917598 8.83104439,6.95863941 C9.4179176,7.23810284 9.94889812,7.65729799 10.3680933,8.24417119 C10.9270201,7.65729799 11.5418397,7.2101565 12.1846056,6.93069307 C12.8273714,6.65122964 13.5539764,6.53944427 14.3923667,6.53944427 C15.0630789,6.53944427 15.6778984,6.65122964 16.2647716,6.84685404 C16.8516448,7.04247844 17.3267327,7.34988821 17.6900351,7.71319067 C18.248962,8.27211753 18.6122645,8.85899074 18.8358352,9.47381028 C19.0594059,10.0886298 19.1711913,10.7872884 19.1711913,11.5138933 L19.1711913,20.121367 L15.8176302,20.121367 Z" id="Shape"></path>
                    <path d="M29.4554455,20.121367 L29.4554455,18.8917279 C29.0083041,19.3668157 28.5052699,19.7021718 27.9183967,19.9257426 C27.3315235,20.1493133 26.7446503,20.2610987 26.1298307,20.2610987 C25.4591185,20.2610987 24.8722453,20.1493133 24.3412648,19.9536889 C23.8102843,19.7580645 23.3631428,19.4506547 22.971894,19.0873523 C22.4129671,18.5284254 22.0496646,17.9415522 21.8819866,17.3267327 C21.7143085,16.7119131 21.6025232,16.0132546 21.6025232,15.2866496 L21.6025232,6.70712233 L24.9840307,6.70712233 L24.9840307,14.8115618 C24.9840307,15.2866496 25.0399233,15.6499521 25.1796551,15.9573619 C25.3193868,16.2647716 25.4870648,16.5162887 25.6826892,16.7119131 C25.90626,16.9075375 26.1298307,17.0472692 26.3813478,17.1311083 C26.6328649,17.2149473 26.9123283,17.27084 27.1638454,17.27084 C27.4153625,17.27084 27.6668796,17.2149473 27.946343,17.1311083 C28.1978601,17.0472692 28.4493772,16.9075375 28.6729479,16.7119131 C28.8965187,16.5162887 29.0641967,16.2647716 29.2039285,15.9573619 C29.3436602,15.6499521 29.3995529,15.2587033 29.3995529,14.8115618 L29.3995529,6.70712233 L32.7810604,6.70712233 L32.7810604,20.121367 L29.4554455,20.121367 Z M28.0022357,4.58320026 L25.7665283,4.58320026 L27.4153625,0.195624401 L30.9366017,0.195624401 L28.0022357,4.58320026 Z" id="Shape"></path>
                    <path d="M45.133344,17.8297668 C44.8538805,18.3886937 44.4346854,18.8358352 43.9316512,19.1991377 C43.4286171,19.5624401 42.8137975,19.8419035 42.1151389,20.0095816 C41.4164804,20.1772597 40.6898754,20.289045 39.8794315,20.289045 C39.348451,20.289045 38.8454168,20.2610987 38.3423826,20.2331523 C37.8393485,20.1772597 37.3642606,20.0934206 36.8612264,19.9536889 C36.3861386,19.8139572 35.9110508,19.6183328 35.4639093,19.3668157 C35.0167678,19.1152986 34.5696263,18.7799425 34.1504312,18.3607474 L36.3302459,16.1809326 C36.8891728,16.7398595 37.476046,17.0752156 38.1467582,17.2149473 C38.8174705,17.354679 39.4043437,17.438518 39.9073778,17.438518 C40.1868413,17.438518 40.494251,17.4105717 40.7737145,17.354679 C41.0531779,17.2987863 41.304695,17.2149473 41.5282657,17.1031619 C41.7518365,16.9913766 41.9195145,16.8516448 42.0592462,16.6839668 C42.198978,16.5162887 42.2548706,16.292718 42.2548706,16.0412009 C42.2548706,15.7058448 42.1430853,15.4263813 41.9474609,15.2028106 C41.7518365,14.9792399 41.3605877,14.8674545 40.8296072,14.8115618 L38.7056851,14.6159374 C37.476046,14.504152 36.5258703,14.1408496 35.8272118,13.5819227 C35.1285532,12.9950495 34.7931971,12.1007665 34.7931971,10.8711274 C34.7931971,10.1724689 34.9329288,9.58559566 35.2123922,9.05461514 C35.4918556,8.52363462 35.8831044,8.07649313 36.3581923,7.71319067 C36.8332801,7.34988821 37.392207,7.07042478 38.0070265,6.90274673 C38.6218461,6.70712233 39.2925583,6.6232833 39.9912169,6.6232833 C41.0252316,6.6232833 42.0033536,6.73506867 42.8417439,6.95863941 C43.7080805,7.18221016 44.4626317,7.6014053 45.1053976,8.18827851 L43.0373683,10.2842542 C42.6461195,9.94889812 42.1710316,9.69738103 41.6121048,9.58559566 C41.0531779,9.44586394 40.494251,9.38997126 39.9073778,9.38997126 C39.2366656,9.38997126 38.7615778,9.52970297 38.454168,9.78122006 C38.1467582,10.0327371 38.0070265,10.3401469 38.0070265,10.675503 C38.0070265,10.7872884 38.0349729,10.9270201 38.0629192,11.0388055 C38.0908655,11.1785372 38.1747046,11.2903226 38.2585436,11.3741616 C38.370329,11.485947 38.5100607,11.569786 38.6777387,11.653625 C38.8454168,11.7374641 39.0969339,11.7933568 39.3763973,11.8213031 L41.5003194,12.0169275 C42.8417439,12.1566592 43.8478122,12.5758544 44.4905781,13.2465666 C45.1612903,13.9172788 45.4687001,14.8395081 45.4687001,15.9573619 C45.5804855,16.6560204 45.4407538,17.2987863 45.133344,17.8297668 Z" id="Shape"></path>
                    <path d="M47.3411051,4.4155222 L47.3411051,1.67678058 L50.8064516,1.67678058 L50.8064516,4.4155222 L47.3411051,4.4155222 Z M47.3969978,20.121367 L47.3969978,6.70712233 L50.7785053,6.70712233 L50.7785053,20.121367 L47.3969978,20.121367 Z" id="Shape"></path>
                    <path d="M61.2583839,19.8419035 C60.531779,20.1493133 59.721335,20.289045 58.7991057,20.289045 C58.1283935,20.289045 57.4297349,20.1772597 56.7310763,19.9816353 C56.0044714,19.7860109 55.3617055,19.4227084 54.8027787,18.8917279 C54.2159055,18.3607474 53.7408176,17.6620888 53.3495688,16.7678058 C52.95832,15.8735228 52.790642,14.7556691 52.790642,13.4142447 C52.790642,12.0448738 52.9862664,10.9270201 53.3495688,10.0606835 C53.7408176,9.16640051 54.2159055,8.46774194 54.8027787,7.96470776 C55.3896519,7.46167359 56.0324178,7.09837113 56.7310763,6.87480038 C57.4576813,6.67917598 58.1283935,6.56739061 58.7991057,6.56739061 C59.721335,6.56739061 60.5597253,6.70712233 61.2583839,7.0145321 C61.9570425,7.29399553 62.6277547,7.76908336 63.2425743,8.38390291 L60.9789205,10.6475567 C60.6435644,10.2563079 60.3082082,10.0047908 59.9728521,9.83711274 C59.637496,9.66943469 59.2462472,9.58559566 58.8270521,9.58559566 C58.0445545,9.58559566 57.4017886,9.86505909 56.9267007,10.4519323 C56.6751836,10.7872884 56.4795592,11.1785372 56.3677739,11.6256787 C56.2559885,12.1007665 56.2000958,12.6876397 56.2000958,13.4142447 C56.2000958,14.7836155 56.4516129,15.7896838 56.9546471,16.4045034 C57.4297349,16.9913766 58.0725008,17.27084 58.8549984,17.27084 C59.3021399,17.27084 59.6933887,17.187001 60.0007985,17.0193229 C60.3361546,16.8516448 60.6715107,16.5721814 61.0068668,16.208879 L63.2705206,18.4445864 C62.6277547,19.0594059 61.9570425,19.5344938 61.2583839,19.8419035 Z" id="Shape"></path>
                    <path d="M71.5146918,20.121367 L71.5146918,18.9755669 C71.0675503,19.4227084 70.5924625,19.7580645 70.1173746,19.9536889 C69.6422868,20.1493133 68.9995209,20.2610987 68.2170233,20.2610987 C66.7358671,20.2610987 65.5900671,19.8698499 64.8075695,19.0873523 C64.444267,18.6961035 64.1648036,18.2769083 63.9971255,17.7459278 C63.8015011,17.2428936 63.7176621,16.6839668 63.7176621,16.0691472 C63.7176621,15.5381667 63.8015011,15.0351325 63.9971255,14.5600447 C64.1927499,14.0849569 64.4722134,13.6657617 64.8355158,13.3304056 C65.1988183,12.9671032 65.6739061,12.6876397 66.2607793,12.4920153 C66.8476525,12.2963909 67.5183647,12.1846056 68.272916,12.1846056 L71.4308528,12.1846056 L71.4308528,11.5138933 C71.4308528,10.7872884 71.2352284,10.2283615 70.8439796,9.89300543 C70.4527308,9.55764931 69.8099649,9.38997126 68.9156819,9.38997126 C68.5803258,9.38997126 68.3008623,9.4179176 68.0772916,9.44586394 C67.8257745,9.50175663 67.6301501,9.55764931 67.4345257,9.64148834 C67.2389013,9.72532737 67.0432769,9.83711274 66.8755989,9.97684446 C66.7079208,10.1165762 66.5402427,10.2842542 66.3725647,10.4798786 L64.2206963,8.38390291 C64.8634622,7.65729799 65.5621207,7.18221016 66.2887256,6.90274673 C67.0153306,6.65122964 67.9375599,6.51149792 69.0554136,6.51149792 C70.9557649,6.51149792 72.3810284,6.90274673 73.3591504,7.68524433 C74.3372724,8.46774194 74.8123603,9.66943469 74.8123603,11.2344299 L74.8123603,20.121367 L71.5146918,20.121367 Z M71.4308528,14.4482593 L68.8038965,14.4482593 C68.2170233,14.4482593 67.7419355,14.5879911 67.4345257,14.8395081 C67.0991696,15.1189716 66.9594379,15.482274 66.9594379,15.9573619 C66.9594379,16.4324497 67.1271159,16.7957522 67.4345257,17.0752156 C67.7419355,17.354679 68.2449697,17.4944107 68.8877355,17.4944107 C69.334877,17.4944107 69.7540722,17.4664644 70.061482,17.3826254 C70.3968381,17.3267327 70.7042478,17.1311083 70.9837113,16.8516448 C71.3190674,16.5442351 71.4587991,15.9853082 71.4587991,15.1469179 L71.4308528,14.4482593 L71.4308528,14.4482593 Z" id="Shape"></path>
                </g>
                <g id="ClaroMusica" fill="#E2231A">
                    <polygon id="Shape" points="76.8214829 15.4281371 87.1069076 5.14271238 84.37595 2.44722175 74.0905252 12.7326465"></polygon>
                    <rect id="Rectangle-path" x="65.7912515" y="0.283735855" width="3.79496707" height="11.0302314"></rect>
                    <rect id="Rectangle-path" x="78.7012329" y="19.719642" width="11.2785003" height="3.83043405"></rect>
                    <path d="M70.5083601,27.0967742 C69.6216855,28.0543827 68.4867421,28.4799865 67.1744638,28.4799865 C65.8976524,28.4799865 64.798176,28.0189157 63.9115014,27.0967742 C63.0248269,26.1391657 62.5282891,25.0396892 62.5282891,23.7628779 C62.5282891,22.4151326 63.0248269,21.3156561 63.9115014,20.3935146 C64.798176,19.4359061 65.9331194,19.0103023 67.1744638,19.0457693 C68.4867421,19.0103023 69.5862185,19.4713731 70.5438271,20.3935146 C71.3950346,21.2801892 71.8561054,22.4151326 71.8915724,23.7628779 C71.8561054,25.0396892 71.3950346,26.1391657 70.5083601,27.0967742 M73.4875866,17.4142881 C71.7142375,15.640939 69.5862185,14.7897315 67.1744638,14.7897315 C64.762709,14.7897315 62.6701571,15.640939 60.932275,17.4142881 C59.1589259,19.1876372 58.3077183,21.3156561 58.3077183,23.7628779 C58.3077183,26.2100996 59.1589259,28.3735855 60.932275,30.0760007 C62.6346901,31.8493498 64.727242,32.7360243 67.1744638,32.7360243 C69.5862185,32.7360243 71.7142375,31.8493498 73.4875866,30.0760007 C75.2254687,28.3381186 76.0766762,26.2100996 76.0766762,23.7628779 C76.0766762,21.3156561 75.2254687,19.1876372 73.4875866,17.4142881" id="Shape"></path>
                    <path d="M11.0656984,10.3918257 C7.98007093,10.3563587 5.46191522,11.4203682 3.3338963,13.6193211 C1.1704104,15.782807 0.106400946,18.3718966 0.106400946,21.4575241 C0.106400946,24.5076845 1.1704104,27.1677082 3.3338963,29.3311941 C5.46191522,31.459213 8.01553792,32.5232224 11.0656984,32.5232224 C13.5129201,32.5232224 15.782807,31.7784158 17.733491,30.2533356 C19.648708,28.6927884 20.9255193,26.7775714 21.599392,24.4012836 L17.1305523,24.4012836 C16.5630806,25.536227 15.74734,26.4938355 14.7187975,27.2386421 C13.5838541,27.9479818 12.3779767,28.3026516 11.0656984,28.3026516 C9.18594832,28.3026516 7.58993413,27.5933119 6.2776558,26.2810336 C4.92991049,24.9332883 4.25603783,23.3372741 4.3269718,21.4575241 C4.29150481,19.577774 4.92991049,17.9817598 6.2776558,16.6340145 C7.58993413,15.3217362 9.18594832,14.6123966 11.0656984,14.6123966 C12.3779767,14.6123966 13.5838541,14.9670664 14.7187975,15.711873 C15.74734,16.4212126 16.5630806,17.3788211 17.1305523,18.5492315 L21.599392,18.5492315 C20.9609863,16.1729438 19.684175,14.1867928 17.733491,12.6971795 C15.782807,11.1366323 13.5483871,10.3563587 11.0656984,10.3918257" id="Shape"></path>
                    <path d="M39.9358217,24.4012836 L40.7515622,23.9402128 L40.7515622,25.6780949 C40.7515622,27.1677082 40.3259585,28.1962506 39.5811518,28.7637223 C38.7654112,29.3311941 37.9142037,29.6149299 36.9211282,29.6149299 C36.3181895,29.6149299 35.8216517,29.437595 35.396048,29.1183922 C35.0059112,28.7637223 34.7931093,28.2317176 34.7931093,27.451444 C34.7931093,26.6002364 35.1123121,25.9618308 35.8216517,25.536227 C36.2472555,25.2879581 36.9211282,25.0751562 37.8432697,24.9687553 L39.9358217,24.4012836 Z M38.1270056,14.7542645 C35.25418,14.7187975 33.2325621,15.4990711 32.0976186,17.0241513 C31.352812,17.9817598 30.9981422,19.1876372 30.8562743,20.7481844 L35.1123121,20.7481844 C35.1832461,20.0033778 35.4315149,19.5068401 35.7152508,19.1876372 C36.1763216,18.6201655 36.8856612,18.3364297 37.9851376,18.3718966 C38.8718122,18.3364297 39.5811518,18.4782976 40.0776896,18.7975004 C40.5742273,19.0457693 40.7870292,19.542307 40.8224962,20.2516467 C40.8224962,20.8191184 40.5032934,21.2801892 39.8294207,21.563925 L36.5309914,22.0959297 C35.0059112,22.3087316 33.8000338,22.6634015 32.8424253,23.1954062 C31.2464111,24.1530147 30.4661375,25.6426279 30.5016045,27.8415808 C30.4661375,29.366661 30.9626752,30.5725384 31.9202837,31.49468 C32.7714913,32.2394866 33.9773687,32.6296234 35.396048,32.7005573 C37.7368688,32.6650904 39.5811518,32.0976186 40.8934302,30.9272082 L40.8934302,32.7005573 L45.149468,32.7005573 L45.149468,20.0743118 C45.149468,18.0172268 44.4046614,16.5985475 43.0214491,15.8537409 C41.6027698,15.0734673 39.9712886,14.7187975 38.1270056,14.7542645 L38.1270056,14.7542645 Z" id="Shape"></path>
                    <rect id="Rectangle-path" x="23.7628779" y="10.3918257" width="4.25603783" height="22.2377977"></rect>
                    <path d="M55.1511569,15.3572032 C54.0162135,15.8182739 52.987671,16.5985475 52.1009965,17.7689579 L52.1009965,15.605472 L48.0577605,15.5700051 L48.0577605,32.6296234 L52.2783314,32.6296234 L52.2783314,24.4722175 C52.2783314,23.0890052 52.4556663,22.0959297 52.8103361,21.4575241 C53.0940719,20.8191184 53.6260767,20.2871137 54.2999493,19.8260429 C55.044756,19.3295052 55.8250296,19.0812363 56.6407701,19.0812363 L57.9530485,19.1521702 L57.9175815,14.7897315 L56.818105,14.8606654 L55.1511569,15.3572032 Z" id="Shape"></path>
                </g>
            </g>
        </g>
    </g>
</svg>